<?xml version="1.0" encoding="utf-8"?>
<!-- Generator: Adobe Illustrator 25.0.1, SVG Export Plug-In . SVG Version: 6.00 Build 0)  -->
<svg version="1.1" id="Layer_1" xmlns="http://www.w3.org/2000/svg" xmlns:xlink="http://www.w3.org/1999/xlink" x="0px" y="0px"
	 viewBox="0 0 41.2 30" style="enable-background:new 0 0 41.2 30;" xml:space="preserve">
<style type="text/css">
	.st0{fill:#D3E7BB;}
	.st1{fill:#FFFFFF;filter:url(#Adobe_OpacityMaskFilter);}
	.st2{mask:url(#mask0_1256_12523_1_);}
	.st3{fill:#FFFFFF;filter:url(#Adobe_OpacityMaskFilter_1_);}
	.st4{mask:url(#mask1_1256_12523_1_);}
</style>
<path class="st0" d="M30.6,8.4C24.7,8.4,20,13.2,20,19.1v10.7h10.6c5.9,0,10.6-4.8,10.6-10.7S36.5,8.4,30.6,8.4z M30.6,24.8
	c-3.1,0-5.7-2.6-5.7-5.7s2.5-5.7,5.7-5.7c3.1,0,5.7,2.6,5.7,5.7S33.7,24.8,30.6,24.8z"/>
<defs>
	<filter id="Adobe_OpacityMaskFilter" filterUnits="userSpaceOnUse" x="10.5" y="-5.7" width="19.7" height="38.8">
		<feColorMatrix  type="matrix" values="1 0 0 0 0  0 1 0 0 0  0 0 1 0 0  0 0 0 1 0"/>
	</filter>
</defs>
<mask maskUnits="userSpaceOnUse" x="10.5" y="-5.7" width="19.7" height="38.8" id="mask0_1256_12523_1_">
	<path class="st1" d="M31.1,10.7c0,3.2-1.4-0.6-3.6,1.4c-1.9,1.7-4.4,9.3-7.1,9.3c-5.9,0-10.7-4.8-10.7-10.7C9.8,4.8,14.6,0,20.4,0
		C26.3,0,31.1,4.8,31.1,10.7z"/>
</mask>
<g class="st2">
	<path class="st0" d="M11.2-5.7h-0.8v38.8h0.8V-5.7z"/>
	<path class="st0" d="M13.1-5.7h-0.8v38.8h0.8V-5.7z"/>
	<path class="st0" d="M15-5.7h-0.8v38.8H15V-5.7z"/>
	<path class="st0" d="M16.9-5.7h-0.8v38.8h0.8V-5.7z"/>
	<path class="st0" d="M18.8-5.7h-0.8v38.8h0.8V-5.7z"/>
	<path class="st0" d="M20.7-5.7H20v38.8h0.8V-5.7z"/>
	<path class="st0" d="M22.6-5.7h-0.8v38.8h0.8V-5.7z"/>
	<path class="st0" d="M24.5-5.7h-0.8v38.8h0.8V-5.7z"/>
	<path class="st0" d="M26.4-5.7h-0.8v38.8h0.8V-5.7z"/>
	<path class="st0" d="M28.3-5.7h-0.8v38.8h0.8V-5.7z"/>
	<path class="st0" d="M30.2-5.7h-0.8v38.8h0.8V-5.7z"/>
</g>
<defs>
	<filter id="Adobe_OpacityMaskFilter_1_" filterUnits="userSpaceOnUse" x="1.3" y="-5.7" width="19.2" height="38.8">
		<feColorMatrix  type="matrix" values="1 0 0 0 0  0 1 0 0 0  0 0 1 0 0  0 0 0 1 0"/>
	</filter>
</defs>
<mask maskUnits="userSpaceOnUse" x="1.3" y="-5.7" width="19.2" height="38.8" id="mask1_1256_12523_1_">
	<path class="st3" d="M21.3,19.1v10.7H10.6C4.8,29.7,0,25,0,19.1S4.8,8.4,10.6,8.4C16.5,8.4,21.3,13.2,21.3,19.1z"/>
</mask>
<g class="st4">
	<path class="st0" d="M1.5-5.7H1.3v38.8h0.2V-5.7z"/>
	<path class="st0" d="M3.4-5.7H3.2v38.8h0.2V-5.7z"/>
	<path class="st0" d="M5.3-5.7H5.1v38.8h0.2V-5.7z"/>
	<path class="st0" d="M7.2-5.7H7v38.8h0.2V-5.7z"/>
	<path class="st0" d="M9.1-5.7H8.9v38.8h0.2V-5.7z"/>
	<path class="st0" d="M11-5.7h-0.2v38.8H11V-5.7z"/>
	<path class="st0" d="M12.9-5.7h-0.2v38.8h0.2V-5.7z"/>
	<path class="st0" d="M14.8-5.7h-0.2v38.8h0.2V-5.7z"/>
	<path class="st0" d="M16.7-5.7h-0.2v38.8h0.2V-5.7z"/>
	<path class="st0" d="M18.5-5.7h-0.2v38.8h0.2V-5.7z"/>
	<path class="st0" d="M20.4-5.7h-0.2v38.8h0.2V-5.7z"/>
</g>
<path class="st0" d="M30.6,21.7c1.5,0,2.7-1.2,2.7-2.7c0-1.5-1.2-2.7-2.7-2.7c-1.5,0-2.7,1.2-2.7,2.7C27.9,20.5,29.1,21.7,30.6,21.7
	z"/>
<path class="st0" d="M33.5,16.8c0.3,0,0.5-0.2,0.5-0.5c0-0.3-0.2-0.5-0.5-0.5c-0.3,0-0.5,0.2-0.5,0.5C32.9,16.5,33.2,16.8,33.5,16.8
	z"/>
</svg>
